GRF
version=1
nRows=18
nColumns=19
inDegrees=no
endheader
time	ground_force_vx	ground_force_vy	ground_force_vz	ground_force_px	ground_force_py	ground_force_pz	ground_torque_x	ground_torque_y	ground_torque_z	1_ground_force_vx	1_ground_force_vy	1_ground_force_vz	1_ground_force_px	1_ground_force_py	1_ground_force_pz	1_ground_torque_x	1_ground_torque_y	1_ground_torque_z
      1.41700000	    -40.48616355	    353.28667266	      3.98928019	      0.16631926	     -0.00000000	      0.02652663	     -0.00000000	     -0.26163193	      0.00000000	     41.67170571	    355.24509533	     -4.14261923	     -0.23928012	      0.00000000	      0.06333649	      0.00000000	      1.28535003	     -0.00000000
      1.41800000	    -40.48964734	    353.28849249	      3.98816447	      0.16631254	     -0.00000000	      0.02652289	     -0.00000000	     -0.25962004	      0.00000000	     41.67656684	    355.27448556	     -4.14779622	     -0.23927148	      0.00000000	      0.06331714	      0.00000000	      1.28825637	     -0.00000000
      1.41900000	    -40.49274291	    353.28934575	      3.98672592	      0.16630575	     -0.00000000	      0.02652007	     -0.00000000	     -0.25759987	      0.00000000	     41.68153942	    355.30259257	     -4.15303840	     -0.23926296	      0.00000000	      0.06329818	      0.00000000	      1.29113931	     -0.00000000
      1.42000000	    -40.49546385	    353.28925371	      3.98498475	      0.16629890	     -0.00000000	      0.02651810	     -0.00000000	     -0.25558353	      0.00000000	     41.68658703	    355.32934835	     -4.15832486	     -0.23925458	      0.00000000	      0.06327961	      0.00000000	      1.29398856	     -0.00000000
      1.42100000	    -40.49782441	    353.28823893	      3.98296248	      0.16629201	     -0.00000000	      0.02651693	     -0.00000000	     -0.25358378	      0.00000000	     41.69167234	    355.35468736	     -4.16363512	     -0.23924637	      0.00000000	      0.06326145	      0.00000000	      1.29679424	     -0.00000000
      1.42200000	    -40.49983925	    353.28632488	      3.98068175	      0.16628509	     -0.00000000	      0.02651645	     -0.00000000	     -0.25161397	      0.00000000	     41.69675751	    355.37854687	     -4.16894922	     -0.23923834	      0.00000000	      0.06324368	      0.00000000	      1.29954693	     -0.00000000
      1.42300000	    -40.50152320	    353.28353569	      3.97816608	      0.16627817	     -0.00000000	      0.02651660	     -0.00000000	     -0.24968795	      0.00000000	     41.70180460	    355.40086728	     -4.17424791	     -0.23923052	      0.00000000	      0.06322631	      0.00000000	      1.30223764	     -0.00000000
      1.42400000	    -40.50289094	    353.27989582	      3.97543970	      0.16627125	     -0.00000000	      0.02651729	     -0.00000000	     -0.24781994	      0.00000000	     41.70677590	    355.42159246	     -4.17951283	     -0.23922293	      0.00000000	      0.06320933	      0.00000000	      1.30485787	     -0.00000000
      1.42500000	    -40.50395681	    353.27542987	      3.97252731	      0.16626437	     -0.00000000	      0.02651842	     -0.00000000	     -0.24602444	      0.00000000	     41.71163436	    355.44067010	     -4.18472665	     -0.23921559	      0.00000000	      0.06319274	      0.00000000	      1.30739958	     -0.00000000
      1.42600000	    -40.50473457	    353.27016232	      3.96945388	      0.16625753	     -0.00000000	      0.02651991	     -0.00000000	     -0.24431609	      0.00000000	     41.71634388	    355.45805202	     -4.18987319	     -0.23920853	      0.00000000	      0.06317652	      0.00000000	      1.30985522	     -0.00000000
      1.42700000	    -40.50523714	    353.26411740	      3.96624445	      0.16625077	     -0.00000000	      0.02652166	     -0.00000000	     -0.24270958	      0.00000000	     41.72086972	    355.47369449	     -4.19493764	     -0.23920176	      0.00000000	      0.06316067	      0.00000000	      1.31221770	     -0.00000000
      1.42800000	    -40.50547644	    353.25731890	      3.96292388	      0.16624409	     -0.00000000	      0.02652359	     -0.00000000	     -0.24121950	      0.00000000	     41.72517877	    355.48755857	     -4.19990664	     -0.23919530	      0.00000000	      0.06314518	      0.00000000	      1.31448040	     -0.00000000
      1.42900000	    -40.50546319	    353.24979011	      3.95951669	      0.16623751	     -0.00000000	      0.02652559	     -0.00000000	     -0.23986021	      0.00000000	     41.72923982	    355.49961031	     -4.20476844	     -0.23918917	      0.00000000	      0.06313003	      0.00000000	      1.31663715	     -0.00000000
      1.43000000	    -40.50520673	    353.24155377	      3.95604682	      0.16623105	     -0.00000000	      0.02652759	     -0.00000000	     -0.23864574	      0.00000000	     41.73302388	    355.50982108	     -4.20951301	     -0.23918339	      0.00000000	      0.06311521	      0.00000000	      1.31868221	     -0.00000000
      1.43100000	    -40.50471493	    353.23263202	      3.95253746	      0.16622473	     -0.00000000	      0.02652949	     -0.00000000	     -0.23758964	      0.00000000	     41.73650436	    355.51816777	     -4.21413214	     -0.23917796	      0.00000000	      0.06310071	      0.00000000	      1.32061025	     -0.00000000
      1.43200000	    -40.50399404	    353.22304646	      3.94901086	      0.16621856	     -0.00000000	      0.02653123	     -0.00000000	     -0.23670487	      0.00000000	     41.73965728	    355.52463301	     -4.21861958	     -0.23917291	      0.00000000	      0.06308651	      0.00000000	      1.32241632	     -0.00000000
      1.43300000	    -40.50304864	    353.21281819	      3.94548814	      0.16621257	     -0.00000000	      0.02653270	     -0.00000000	     -0.23600367	      0.00000000	     41.74246145	    355.52920529	     -4.22297105	     -0.23916825	      0.00000000	      0.06307259	      0.00000000	      1.32409585	     -0.00000000
      1.43400000	    -40.50188160	    353.20196793	      3.94198919	      0.16620676	     -0.00000000	      0.02653386	     -0.00000000	     -0.23549743	      0.00000000	     41.74489856	    355.53187917	     -4.22718438	     -0.23916398	      0.00000000	      0.06305894	      0.00000000	      1.32564457	     -0.00000000
